HIERARCHY
ROOT Hips
{
	OFFSET -0.001795 -0.223333 0.028219
	CHANNELS 6 Xposition Yposition Zposition Zrotation Yrotation Xrotation 
	JOINT LeftUpLeg
	{
		OFFSET 0.069520 -0.091406 -0.006815
		CHANNELS 3 Zrotation Yrotation Xrotation
		JOINT LeftLeg
		{
			OFFSET 0.034277 -0.375199 -0.004496
			CHANNELS 3 Zrotation Yrotation Xrotation
			JOINT LeftFoot
			{
				OFFSET -0.013596 -0.397961 -0.043693
				CHANNELS 3 Zrotation Yrotation Xrotation
				JOINT LeftToe
				{
					OFFSET 0.026358 -0.055791 0.119288
					CHANNELS 3 Zrotation Yrotation Xrotation
					End Site
					{
						OFFSET 0.000000 0.000000 0.000000
					}
				}
			}
		}
	}
	JOINT RightUpLeg
	{
		OFFSET -0.067670 -0.090522 -0.004320
		CHANNELS 3 Zrotation Yrotation Xrotation
		JOINT RightLeg
		{
			OFFSET -0.038290 -0.382569 -0.008850
			CHANNELS 3 Zrotation Yrotation Xrotation
			JOINT RightFoot
			{
				OFFSET 0.015774 -0.398415 -0.042312
				CHANNELS 3 Zrotation Yrotation Xrotation
				JOINT RightToe
				{
					OFFSET -0.025372 -0.048144 0.123348
					CHANNELS 3 Zrotation Yrotation Xrotation
					End Site
					{
						OFFSET 0.000000 0.000000 0.000000
					}
				}
			}
		}
	}
	JOINT Spine
	{
		OFFSET -0.002533 0.108963 -0.026696
		CHANNELS 3 Zrotation Yrotation Xrotation
		JOINT Spine1
		{
			OFFSET 0.005487 0.135180 0.001092
			CHANNELS 3 Zrotation Yrotation Xrotation
			JOINT Spine2
			{
				OFFSET 0.001457 0.052922 0.025425
				CHANNELS 3 Zrotation Yrotation Xrotation
				JOINT Neck
				{
					OFFSET -0.002778 0.213870 -0.042857
					CHANNELS 3 Zrotation Yrotation Xrotation
					JOINT Head
					{
						OFFSET 0.005152 0.064970 0.051349
						CHANNELS 3 Zrotation Yrotation Xrotation
						End Site
						{
							OFFSET 0.000000 0.000000 0.000000
						}
					}
				}
				JOINT LeftShoulder
				{
					OFFSET 0.078845 0.121749 -0.034090
					CHANNELS 3 Zrotation Yrotation Xrotation
					JOINT LeftArm
					{
						OFFSET 0.090977 0.030469 -0.008868
						CHANNELS 3 Zrotation Yrotation Xrotation
						JOINT LeftForeArm
						{
							OFFSET 0.259612 -0.012772 -0.027456
							CHANNELS 3 Zrotation Yrotation Xrotation
							JOINT LeftHand
							{
								OFFSET 0.249234 0.008986 -0.001171
								CHANNELS 3 Zrotation Yrotation Xrotation
								End Site
								{
									OFFSET 0.000000 0.000000 0.000000
								}
							}
						}
					}
				}
				JOINT RightShoulder
				{
					OFFSET -0.081759 0.118833 -0.038615
					CHANNELS 3 Zrotation Yrotation Xrotation
					JOINT RightArm
					{
						OFFSET -0.096012 0.032551 -0.009143
						CHANNELS 3 Zrotation Yrotation Xrotation
						JOINT RightForeArm
						{
							OFFSET -0.253742 -0.013329 -0.021401
							CHANNELS 3 Zrotation Yrotation Xrotation
							JOINT RightHand
							{
								OFFSET -0.255298 0.007772 -0.005559
								CHANNELS 3 Zrotation Yrotation Xrotation
								End Site
								{
									OFFSET 0.000000 0.000000 0.000000
								}
							}
						}
					}
				}
			}
		}
	}
}
MOTION
Frames: 7
Frame Time: 0.050000
0.000000 0.962949 0.000000 12.557620 2.970261 21.872666 11.691308 -0.778884 -20.995814 -1.043193 -8.995186 121.422310 -20.311637 -11.949211 36.699487 0.000000 0.000000 0.000000 -10.682582 0.096142 -37.626673 1.116136 0.208052 17.717602 -4.457544 -11.544358 0.109800 0.000000 0.000000 0.000000 11.346512 -2.719656 12.279869 -1.252566 0.616053 -4.099937 -3.406942 0.584197 -3.991666 4.219222 -0.314159 -20.805515 0.000000 0.000000 0.000000 -20.225563 -3.270057 -1.312968 -57.432751 6.863633 -8.724413 -12.898754 -28.134754 3.939138 0.000000 0.000000 0.000000 13.225802 5.362880 1.902555 50.090006 15.042307 2.287536 -4.611365 23.403889 0.044623 0.000000 0.000000 0.000000 
-0.001036 0.957750 0.000214 14.588787 3.892942 23.461092 9.512657 -1.280902 -26.614022 -0.631304 -15.001066 131.535583 -21.205294 -7.458531 46.685951 0.000000 0.000000 0.000000 -13.988473 -1.118658 -38.186066 4.158945 -0.638883 15.573759 -3.264203 -8.922690 2.499551 0.000000 0.000000 0.000000 11.331202 -3.175823 14.599470 0.546348 -0.054616 -5.007354 -4.174735 -2.407332 -9.581220 2.241768 0.423145 -19.092558 0.000000 0.000000 0.000000 -26.084143 -0.912433 -2.980859 -53.705389 8.491216 -8.068686 -10.810930 -26.540050 3.301244 0.000000 0.000000 0.000000 13.780171 8.007041 2.670452 47.153556 12.878315 1.969369 0.374334 24.662156 0.889678 0.000000 0.000000 0.000000 
-0.000984 0.955813 -0.001666 14.807077 -0.721840 23.896135 12.420559 -0.406459 -29.611818 0.632964 -13.182445 135.923870 -22.244101 -4.854584 52.923892 0.000000 0.000000 0.000000 -14.802191 -0.694408 -42.051338 2.696174 -0.090905 20.041547 -1.604989 -4.802015 1.306095 0.000000 0.000000 0.000000 9.752581 -3.007459 16.706293 -1.181800 0.597757 -5.876625 -1.462127 -0.390973 -9.934246 -0.572682 1.638888 -19.241006 0.000000 0.000000 0.000000 -28.165345 -3.456457 -1.176808 -52.243573 8.677823 -7.827482 -11.771518 -26.458141 3.608181 0.000000 0.000000 0.000000 14.047629 10.239170 3.591981 46.181458 11.626616 1.573202 -0.922137 25.201392 0.605056 0.000000 0.000000 0.000000 
-0.000452 0.955912 -0.004958 16.303703 -0.341453 25.059492 10.670298 -0.852177 -35.691239 -0.634424 -11.880050 140.531250 -21.740768 -3.903221 54.061900 0.000000 0.000000 0.000000 -16.344155 -1.368325 -42.850973 1.311203 0.252609 19.264759 -1.012147 -3.461646 1.872855 0.000000 0.000000 0.000000 10.999789 -3.512632 17.643636 0.298067 0.058062 -6.236049 -3.196397 -2.105878 -8.300783 -2.081901 2.401828 -22.497843 0.000000 0.000000 0.000000 -29.660446 -2.238923 -1.653244 -50.654880 4.975344 -6.229587 -12.320899 -26.207600 3.799921 0.000000 0.000000 0.000000 13.422717 12.588904 4.656329 44.724854 12.377153 1.679438 -2.505903 26.185601 0.271915 0.000000 0.000000 0.000000 
-0.000085 0.955298 -0.008535 17.471533 -0.559137 24.822316 9.580354 -1.175166 -41.113741 -1.747153 -9.010504 145.130399 -19.973384 -3.017370 52.616987 0.000000 0.000000 0.000000 -18.042600 -1.950554 -43.345537 1.190430 0.296640 20.281821 -0.298567 -1.071680 0.626586 0.000000 0.000000 0.000000 11.889634 -4.307224 21.309446 -1.665083 0.801571 -8.284252 -1.991110 -2.413962 -5.218536 -0.532659 1.680407 -23.088342 0.000000 0.000000 0.000000 -30.654545 -6.761602 2.009407 -51.462870 1.262324 -5.214586 -9.648577 -25.405177 3.176362 0.000000 0.000000 0.000000 12.381806 12.076590 4.309900 44.994395 13.526335 1.833850 -4.668492 27.300588 -0.213188 0.000000 0.000000 0.000000 
-0.000358 0.953516 -0.011827 18.203424 -1.116882 26.198171 9.671163 -1.185299 -47.837691 -2.654741 -5.024884 149.206658 -20.854533 -4.330859 51.197498 0.000000 0.000000 0.000000 -19.117615 -2.476062 -45.631399 1.222855 0.305044 21.306571 0.007071 -0.023086 0.147667 0.000000 0.000000 0.000000 12.468028 -4.749506 22.787720 0.247231 0.111478 -7.747085 -3.234554 -1.840978 -5.919691 -0.278196 1.540809 -21.675408 0.000000 0.000000 0.000000 -31.216105 -7.922933 2.510424 -51.417012 -0.460283 -4.336534 -8.747479 -26.778849 3.126195 0.000000 0.000000 0.000000 12.952145 12.547724 4.727315 42.567344 14.531734 2.060504 -5.040150 27.805745 -0.238048 0.000000 0.000000 0.000000 
-0.000746 0.951834 -0.014389 18.473188 -2.270566 26.190893 10.061784 -0.773080 -52.196661 -3.322244 1.016767 151.552761 -20.170610 -4.950124 48.228141 0.000000 0.000000 0.000000 -19.230138 -2.339567 -46.812606 1.164409 0.392201 22.340386 -0.178209 -0.672972 0.363942 0.000000 0.000000 0.000000 12.263716 -4.903692 24.614482 0.584471 -0.013908 -7.865795 -2.098925 -0.760485 -4.691866 -1.660503 2.196042 -22.894060 0.000000 0.000000 0.000000 -33.014693 -9.438020 3.655817 -50.161669 -1.592710 -3.903827 -7.249121 -29.422715 3.094375 0.000000 0.000000 0.000000 12.066208 12.904195 4.983154 41.153944 14.780938 1.890141 -6.068933 28.300756 -0.454922 0.000000 0.000000 0.000000 
